<mxfile host="app.diagrams.net" modified="2023-02-03T00:24:38.524Z" agent="5.0 (Macintosh; Intel Mac OS X 10_15_7) AppleWebKit/605.1.15 (KHTML, like Gecko) Version/15.6.1 Safari/605.1.15" etag="7eMH60UZbtUKAi1bBDsd" version="20.8.13" type="github">
  <diagram name="Page-1" id="kwYXHQsr2hGeAkd9JKOG">
    <mxGraphModel dx="954" dy="647" grid="1" gridSize="10" guides="1" tooltips="1" connect="1" arrows="1" fold="1" page="1" pageScale="1" pageWidth="850" pageHeight="1100" math="0" shadow="0">
      <root>
        <mxCell id="0" />
        <mxCell id="1" parent="0" />
        <mxCell id="QHiN10BXM5jQWNCL7XFv-16" value="&lt;b&gt;Co-Angler Database Categories&lt;/b&gt;&lt;br&gt;Users&lt;br&gt;Posts&lt;br&gt;Questions&lt;br&gt;Offered Trips&lt;br&gt;Requested Trips&lt;br&gt;Followers&lt;br&gt;Comments&lt;br&gt;Bites&lt;br&gt;Number of Trips Taken&lt;br&gt;Trips Available&lt;br&gt;Calendar&lt;br&gt;" style="whiteSpace=wrap;html=1;aspect=fixed;verticalAlign=top;align=left;" vertex="1" parent="1">
          <mxGeometry x="130" y="180" width="250" height="250" as="geometry" />
        </mxCell>
        <mxCell id="QHiN10BXM5jQWNCL7XFv-17" value="&lt;b&gt;Users&lt;/b&gt;&lt;br&gt;User ID&lt;br&gt;Password&lt;br&gt;First_Name&lt;br&gt;Last_Name&lt;br&gt;Email&lt;br&gt;Home Address&lt;br&gt;Fishing Interests (likely another database)&lt;br&gt;&lt;span style=&quot;white-space: pre;&quot;&gt;Age&lt;br/&gt;Gender&lt;br/&gt;	&lt;/span&gt;" style="whiteSpace=wrap;html=1;aspect=fixed;align=left;verticalAlign=top;" vertex="1" parent="1">
          <mxGeometry x="470" y="180" width="270" height="270" as="geometry" />
        </mxCell>
        <mxCell id="QHiN10BXM5jQWNCL7XFv-18" value="Posts&lt;br&gt;&lt;span style=&quot;font-weight: 400;&quot;&gt;ID&lt;br&gt;&lt;/span&gt;&lt;span style=&quot;font-weight: normal;&quot;&gt;Content&lt;br&gt;User_ID&lt;br&gt;Timestamp&lt;/span&gt;" style="whiteSpace=wrap;html=1;aspect=fixed;align=left;fontStyle=1;verticalAlign=top;" vertex="1" parent="1">
          <mxGeometry x="120" y="460" width="230" height="230" as="geometry" />
        </mxCell>
        <mxCell id="QHiN10BXM5jQWNCL7XFv-19" value="Questions&lt;br&gt;&lt;span style=&quot;font-weight: normal;&quot;&gt;ID&lt;br&gt;Content&lt;br&gt;User ID&lt;br&gt;Timestamp&lt;br&gt;Tag?&lt;/span&gt;" style="whiteSpace=wrap;html=1;aspect=fixed;align=left;verticalAlign=top;fontStyle=1" vertex="1" parent="1">
          <mxGeometry x="440" y="480" width="150" height="150" as="geometry" />
        </mxCell>
        <mxCell id="QHiN10BXM5jQWNCL7XFv-20" value="Offered Trips&lt;br&gt;&lt;span style=&quot;font-weight: 400;&quot;&gt;Trip ID&lt;br&gt;&lt;/span&gt;&lt;span style=&quot;font-weight: normal;&quot;&gt;User ID&lt;br&gt;&lt;/span&gt;Location&lt;br&gt;Time start/stop&lt;br&gt;target species&lt;br&gt;technique&lt;br&gt;boat type&lt;br&gt;seats available&lt;br&gt;donation/gas money" style="whiteSpace=wrap;html=1;aspect=fixed;align=left;fontStyle=1;verticalAlign=top;" vertex="1" parent="1">
          <mxGeometry x="440" y="650" width="180" height="180" as="geometry" />
        </mxCell>
      </root>
    </mxGraphModel>
  </diagram>
</mxfile>
